<svg width="20" height="19" viewBox="0 0 20 19" fill="none" xmlns="http://www.w3.org/2000/svg">
<path d="M1.75 7.21582L7.85764 11.828L7.85967 11.8297C8.53785 12.327 8.87714 12.5758 9.24876 12.672C9.57723 12.7569 9.92251 12.7569 10.251 12.672C10.6229 12.5758 10.9632 12.3262 11.6426 11.828L17.75 7.21582M17.5502 6.25526L11.9512 1.77239C11.256 1.21577 10.9081 0.937558 10.5215 0.827078C10.1804 0.729595 9.8192 0.724431 9.47552 0.812429C9.08603 0.91216 8.73087 1.18055 8.02052 1.7177L2.01953 6.25549C1.5538 6.60766 1.32123 6.78386 1.15332 7.00642C1.0046 7.20354 0.893773 7.42647 0.826243 7.66399C0.75 7.93216 0.75 8.22414 0.75 8.80803V15.0159C0.75 16.136 0.75 16.6963 0.967987 17.1242C1.15973 17.5005 1.46547 17.8062 1.8418 17.998C2.2692 18.2157 2.82899 18.2157 3.94691 18.2157H15.5531C16.671 18.2157 17.23 18.2157 17.6574 17.998C18.0337 17.8062 18.3405 17.5003 18.5322 17.1239C18.75 16.6965 18.75 16.1372 18.75 15.0193V8.74229C18.75 8.18514 18.75 7.90484 18.6787 7.64593C18.6151 7.41504 18.5095 7.19743 18.369 7.0035C18.2104 6.78458 17.9909 6.60809 17.5502 6.25526Z" stroke="white" stroke-width="1.5" stroke-linecap="round" stroke-linejoin="round"/>
</svg>
