<svg width="20" height="20" viewBox="0 0 20 20" fill="none" xmlns="http://www.w3.org/2000/svg">
<path d="M7.14648 7.07372C7.31728 6.54743 7.63015 6.07907 8.05078 5.71959C8.47141 5.36011 8.9838 5.12389 9.53027 5.03718C10.0768 4.95048 10.6362 5.0165 11.1475 5.22813C11.6587 5.43976 12.1014 5.78885 12.4268 6.23643C12.7521 6.68402 12.9469 7.21267 12.9904 7.76427C13.0339 8.31587 12.9238 8.8689 12.6727 9.36192C12.4215 9.85495 12.0394 10.2686 11.5676 10.5577C11.0958 10.8468 10.5533 10.9999 10 10.9999V12.0003M10.0498 15.0001V15.1001L9.9502 15.1003V15.0001H10.0498ZM5.33173 1.93761L1.9375 5.33184L1.93442 5.33473C1.59057 5.67858 1.41824 5.85091 1.29492 6.05215C1.18526 6.23109 1.10425 6.42641 1.05526 6.63048C1 6.86065 1 7.10516 1 7.59435V12.4059C1 12.8951 1 13.1396 1.05526 13.3698C1.10425 13.5739 1.18526 13.7689 1.29492 13.9479C1.41857 14.1496 1.59182 14.3229 1.9375 14.6686L5.33173 18.0628C5.67763 18.4087 5.85021 18.5813 6.05204 18.705C6.23099 18.8146 6.42581 18.8959 6.62988 18.9449C6.85971 19.0001 7.10382 19.0001 7.59151 19.0001H12.4075C12.8952 19.0001 13.1404 19.0001 13.3702 18.9449C13.5743 18.8959 13.7693 18.8146 13.9482 18.705C14.1501 18.5813 14.323 18.4087 14.6689 18.0628L18.0632 14.6686C18.4091 14.3227 18.5817 14.1497 18.7053 13.9479C18.815 13.7689 18.8953 13.5739 18.9443 13.3698C18.9996 13.1396 19 12.8951 19 12.4059V7.59435C19 7.10516 18.9996 6.86065 18.9443 6.63048C18.8953 6.42641 18.815 6.2311 18.7053 6.05215C18.5817 5.85033 18.4091 5.67772 18.0632 5.33184L14.6689 1.93761C14.3233 1.59192 14.15 1.41867 13.9482 1.29503C13.7693 1.18537 13.5743 1.10436 13.3702 1.05537C13.14 1.00011 12.8945 1.00011 12.4053 1.00011H7.59375C7.10457 1.00011 6.86006 1.00011 6.62988 1.05537C6.42581 1.10436 6.23099 1.18537 6.05204 1.29503C5.85204 1.41759 5.68106 1.58857 5.3414 1.92824L5.33173 1.93761Z" stroke="#0D0D0D" stroke-width="2" stroke-linecap="round" stroke-linejoin="round"/>
</svg>
