<svg width="21" height="20" viewBox="0 0 21 20" fill="none" xmlns="http://www.w3.org/2000/svg">
<path d="M1.15773 8.3406C0.854893 8.06237 1.01939 7.55939 1.42901 7.51114L7.23301 6.82722C7.39995 6.80756 7.54496 6.70341 7.61537 6.55175L10.0634 1.27912C10.2362 0.907008 10.7687 0.906937 10.9414 1.27905L13.3895 6.55164C13.4599 6.70329 13.604 6.80773 13.7709 6.82739L19.5752 7.51114C19.9848 7.55939 20.1489 8.06252 19.846 8.34074L15.5555 12.2833C15.432 12.3967 15.3771 12.5655 15.4099 12.7293L16.5486 18.4245C16.629 18.8264 16.1984 19.1378 15.8385 18.9377L10.7385 16.1008C10.5918 16.0192 10.4136 16.0196 10.2669 16.1012L5.16637 18.9369C4.80644 19.1371 4.37508 18.8264 4.45547 18.4244L5.59436 12.7297C5.62712 12.5659 5.57231 12.3967 5.44889 12.2833L1.15773 8.3406Z" stroke="#0D0D0D" stroke-width="2" stroke-linecap="round" stroke-linejoin="round"/>
</svg>
